<svg version="1.1" id="Layer_1" xmlns="http://www.w3.org/2000/svg" xmlns:xlink="http://www.w3.org/1999/xlink" x="0px" y="0px"
	 width="100%" viewBox="0 0 1024 1024" enable-background="new 0 0 1024 1024" xml:space="preserve">
<path fill="#000000" opacity="1.000000" stroke="none" 
	d="
M590.367798,801.451538 
	C572.190796,808.210815 553.945496,813.421631 535.592957,818.280457 
	C534.469910,818.577820 533.313293,818.807007 532.158264,818.909241 
	C530.792664,819.030151 529.448120,818.801514 528.630371,817.524780 
	C527.745972,816.143982 528.580688,814.963806 529.275330,813.838806 
	C529.709473,813.135681 530.217712,812.438354 530.828918,811.890381 
	C548.067932,796.432617 558.615051,776.220520 569.543884,756.431519 
	C593.660095,712.764160 614.660522,667.639648 630.296265,620.179688 
	C642.135803,584.242554 652.055969,547.800720 656.469238,510.103241 
	C661.227783,469.456482 661.366638,428.964966 649.651367,389.278717 
	C629.074707,319.573822 590.432861,264.123077 523.436890,231.564423 
	C498.566986,219.478180 472.183289,213.759995 444.499573,215.536423 
	C417.918610,217.242096 393.277649,225.728531 370.426270,239.139572 
	C324.472778,266.108795 286.358185,301.183167 260.048492,348.071381 
	C235.578995,391.680023 219.711243,438.185760 213.185104,487.866089 
	C207.725464,529.427612 206.325027,571.168762 207.445679,612.991150 
	C208.440979,650.134888 212.671265,687.003601 218.652054,723.675293 
	C221.516678,741.239990 224.198868,758.835632 226.781250,776.444031 
	C227.259552,779.705505 228.860062,784.387695 224.767319,785.725220 
	C221.121033,786.916748 219.417801,782.384766 217.791183,779.699036 
	C204.044266,757.001465 192.469879,733.180603 181.957443,708.849365 
	C162.071915,662.824158 150.061035,614.629517 143.099304,565.112488 
	C139.172318,537.180847 137.489731,509.039734 138.999252,480.891693 
	C143.089355,404.622894 165.716522,334.542572 210.437042,272.106232 
	C228.983536,246.212631 248.079666,220.725235 271.059784,198.526276 
	C321.533478,149.768402 380.854706,117.756279 450.382172,106.146217 
	C504.053284,97.183922 554.439026,108.502243 601.844604,133.963531 
	C650.935425,160.329987 686.973572,199.401794 712.302002,248.884705 
	C729.141357,281.782867 741.354248,316.094696 746.650146,352.699829 
	C749.153259,370.001007 750.102051,387.447968 750.396179,404.959564 
	C750.942627,437.497223 748.506897,469.788513 744.618469,502.071381 
	C740.729736,534.356873 730.427551,564.616394 717.875793,594.310242 
	C708.214355,617.166748 698.613708,640.049133 689.052002,662.947510 
	C688.269775,664.820801 686.669800,666.667603 687.966125,669.244263 
	C690.589783,668.887390 691.743591,666.656433 693.259949,665.068726 
	C739.047607,617.127869 768.828308,559.796875 790.557495,497.905945 
	C800.902710,468.439789 806.647827,437.910797 809.956787,406.816040 
	C813.413147,374.335510 816.189026,341.847748 815.573669,309.178345 
	C815.116089,284.886993 814.040283,260.609375 811.165833,236.441849 
	C809.496338,222.404633 808.230957,208.318039 806.912598,194.241592 
	C806.682373,191.783768 806.805298,189.211578 807.263977,186.786575 
	C808.392456,180.819763 811.509460,179.613937 816.434814,183.281021 
	C822.362671,187.694534 826.958862,193.468079 831.686890,199.062607 
	C847.925232,218.276733 864.463379,237.269516 876.981201,259.287201 
	C893.222168,287.853638 906.337769,317.599854 910.742859,350.513153 
	C913.002869,367.398987 912.881042,384.356781 911.410400,401.335846 
	C909.309143,425.595551 905.626526,449.580170 899.773682,473.226044 
	C890.695374,509.902588 874.668335,543.767273 857.428650,577.091797 
	C837.197327,616.199158 810.966919,650.905212 779.184937,681.374512 
	C748.465515,710.825134 716.645752,738.861694 679.508118,760.266235 
	C651.126343,776.624268 621.343262,789.837097 590.367798,801.451538 
z"/>
<path fill="#000000" opacity="1.000000" stroke="none" 
	d="
M548.530945,924.687378 
	C521.649841,928.452576 495.137634,930.096436 468.417358,928.283325 
	C415.185547,924.671265 366.979553,907.187622 323.844452,875.977905 
	C293.110291,853.740601 277.524261,823.706055 276.408356,785.332825 
	C275.086090,739.865417 289.504059,699.914185 315.559418,663.650146 
	C328.779938,645.249695 347.021729,632.132263 365.699677,619.761902 
	C374.558807,613.894531 382.921722,607.208008 393.209656,603.650452 
	C397.596497,602.133545 397.802002,598.945007 393.561066,597.127686 
	C380.365204,591.472717 369.460876,582.292053 357.754883,574.404053 
	C319.755676,548.798645 297.301178,514.143555 296.709137,467.127960 
	C296.241699,430.012787 307.169067,397.116089 333.567108,370.410492 
	C359.572205,344.102356 391.032928,327.808929 427.859314,323.245483 
	C466.613953,318.443085 502.697968,326.850708 535.675903,347.922821 
	C559.671509,363.255463 574.610291,385.778534 585.437744,411.438110 
	C591.685791,426.245117 595.413330,441.760040 597.741821,457.628998 
	C598.135681,460.313232 598.118530,460.315735 596.762512,463.169739 
	C596.326111,462.991547 595.658020,462.938049 595.476685,462.613007 
	C589.061646,451.114716 577.979797,444.569702 568.133118,436.694031 
	C546.847229,419.668915 522.766357,408.214691 496.590302,401.161224 
	C465.228760,392.710480 437.651947,403.995209 422.083069,432.719147 
	C400.666382,472.232025 401.857269,511.341705 427.645691,548.675354 
	C438.439514,564.301453 453.677765,571.557190 473.187592,570.120300 
	C498.652985,568.244812 522.840637,560.727173 547.365295,554.638794 
	C556.834534,552.288025 566.261353,550.728699 576.004700,552.721375 
	C588.910034,555.360901 596.413147,567.669922 592.480896,580.321716 
	C589.491089,589.940796 583.208374,597.206787 574.919128,602.666565 
	C561.186890,611.711548 545.795532,617.202942 530.678711,623.398132 
	C503.105255,634.698181 475.249603,645.715149 453.907135,667.883911 
	C430.641418,692.050354 416.431641,721.022766 408.340820,753.277893 
	C404.678986,767.876343 401.865204,782.614807 403.382111,797.731384 
	C405.436218,818.201355 411.388245,837.152466 426.024628,852.516479 
	C437.124146,864.167908 451.137360,869.746277 466.590698,872.324890 
	C511.920715,879.888855 556.674194,877.557495 601.203186,865.853149 
	C663.369446,849.512756 718.207703,819.226379 768.560364,780.073425 
	C803.004883,753.290222 834.078674,722.954041 862.670105,690.026672 
	C883.312317,666.253845 904.076294,642.586670 924.798157,618.882935 
	C925.654114,617.903748 926.410950,616.717834 928.404785,616.604065 
	C931.263428,619.366211 929.671082,622.691956 928.606384,625.556885 
	C925.764954,633.202759 922.698059,640.776001 919.425415,648.248718 
	C900.639221,691.144043 875.832947,730.187927 845.135864,765.606628 
	C815.781372,799.476257 783.187622,829.522400 744.161560,851.871643 
	C700.494995,876.878235 654.235046,896.079651 606.277832,911.238831 
	C587.513733,917.170227 568.434814,921.721619 548.530945,924.687378 
z"/>
</svg>